<?xml version="1.0" encoding="iso-8859-1"?>
<!-- Generator: Adobe Illustrator 19.0.0, SVG Export Plug-In . SVG Version: 6.00 Build 0)  -->
<svg version="1.1" id="Layer_1" xmlns="http://www.w3.org/2000/svg" xmlns:xlink="http://www.w3.org/1999/xlink" x="0px" y="0px"
	 viewBox="0 0 512 512" style="enable-background:new 0 0 512 512;" xml:space="preserve">
<polygon style="fill:#565B5F;" points="116.33,391.209 83.057,250.349 429.324,250.349 396.051,391.209 "/>
<path style="fill:#CCD6DB;" d="M87.74,201.456c-8.604,0-15.603-6.999-15.603-15.603c0-8.61,7-15.613,15.603-15.613h8.963v-9.125
	H87.74c-8.604,0-15.603-6.999-15.603-15.603c0-8.604,7-15.604,15.603-15.604h271.978c8.604,0,15.603,7,15.603,15.604v15.603H160.403
	c-13.635,0-24.728,11.098-24.728,24.738c0,3.915,0.905,7.677,2.69,11.181l2.253,4.421H87.74V201.456z"/>
<path style="fill:#4A8EA5;" d="M160.403,201.456c-5.544,0-10.718-2.991-13.502-7.805c-1.374-2.357-2.102-5.056-2.102-7.798
	c0-8.61,7-15.613,15.603-15.613h271.978c8.604,0,15.603,7.004,15.603,15.613c0,2.741-0.728,5.441-2.107,7.807
	c-2.78,4.805-7.953,7.796-13.497,7.796H160.403z"/>
<path style="fill:#5AA520;" d="M124.725,120.783c-4.9,0-9.425-2.243-12.413-6.151c-2.089-2.745-3.191-6.011-3.191-9.451
	c0-8.604,7-15.603,15.603-15.603h271.978c8.604,0,15.603,6.999,15.603,15.603c0,3.439-1.101,6.706-3.186,9.445
	c-2.993,3.915-7.518,6.157-12.418,6.157H124.725z"/>
<path style="fill:#A81124;" d="M27.486,241.22c-8.447,0-15.319-6.872-15.319-15.318c0-8.447,6.872-15.319,15.319-15.319h457.028
	c8.447,0,15.319,6.872,15.319,15.319c0,1.25-0.15,2.484-0.446,3.667c-1.685,6.856-7.802,11.651-14.873,11.651L27.486,241.22
	L27.486,241.22z"/>
<polygon style="fill:#FF1D25;" points="92.196,421.92 51.543,249.839 73.681,249.839 77.571,266.325 109.106,399.828 
	245.872,399.828 245.872,249.839 266.128,249.839 266.128,399.828 403.269,399.828 438.704,249.839 460.457,249.839 419.803,421.92 
	"/>
<path style="fill:#6DA7C0;" d="M443.25,192.129c-2.17,3.751-6.225,6.286-10.869,6.286H160.403c-4.643,0-8.699-2.535-10.869-6.286
	c2.17-3.751,6.235-6.276,10.869-6.276h271.978C437.015,185.853,441.08,188.378,443.25,192.129z"/>
<path style="fill:#7AC943;" d="M406.7,112.785c-2.301,3.011-5.931,4.958-9.997,4.958H124.725c-4.066,0-7.695-1.947-9.997-4.958
	c2.301-3.011,5.931-4.958,9.997-4.958h271.978C400.769,107.827,404.399,109.773,406.7,112.785z"/>
<path style="fill:#FF1D25;" d="M496.437,228.832c-1.318,5.363-6.164,9.348-11.923,9.348H30.771
	c1.318-5.363,6.164-9.348,11.923-9.348H496.437z"/>
<path d="M484.511,198.413h-27.373c1.924-3.776,3.017-8.043,3.017-12.564c0-15.313-12.458-27.772-27.772-27.772h-44.898v-12.565
	c0-4.52-1.093-8.787-3.016-12.564h12.234c15.313,0,27.772-12.458,27.772-27.773c0-15.313-12.458-27.772-27.772-27.772H124.726
	c-15.313,0-27.772,12.458-27.772,27.772c0,4.521,1.093,8.788,3.017,12.565H87.738c-15.313,0-27.772,12.458-27.772,27.772
	c0,7.934,3.345,15.102,8.698,20.168c-5.353,5.066-8.698,12.233-8.698,20.169c0,4.52,1.092,8.787,3.016,12.564H27.489
	C12.332,198.413,0,210.744,0,225.901s12.332,27.489,27.489,27.489h12.275l42.803,181.205h346.866l42.803-181.205h12.275
	c15.157,0,27.489-12.332,27.489-27.489S499.668,198.413,484.511,198.413z M432.383,173.285c6.928,0,12.564,5.636,12.564,12.564
	c0,6.928-5.636,12.564-12.564,12.564H160.407c-6.928,0-12.564-5.636-12.564-12.564c0-6.928,5.636-12.564,12.564-12.564H432.383z
	 M124.726,92.614h271.976c6.928,0,12.564,5.636,12.564,12.564c0,6.928-5.636,12.565-12.564,12.565h-36.989H124.726
	c-6.928,0-12.564-5.637-12.564-12.565C112.162,98.25,117.799,92.614,124.726,92.614z M87.738,158.077
	c-6.928,0-12.564-5.636-12.564-12.564s5.636-12.564,12.564-12.564h36.989h234.988c6.928,0,12.564,5.636,12.564,12.564v12.565
	H160.407c-15.313,0-27.772,12.458-27.772,27.772c0,4.521,1.093,8.788,3.017,12.565H87.738c-6.928,0-12.564-5.637-12.564-12.565
	s5.636-12.565,12.564-12.565h12.006v-15.208H87.738z M417.399,419.388H94.601L55.39,253.39h15.884l35.429,149.986h126.997H278.3
	h127.377l35.429-149.986h15.504L417.399,419.388z M181.027,350.037l-3.627-21.653h20.657l1.964,21.653H181.027z M201.402,365.245
	l2.079,22.923h-16.068l-3.84-22.923H201.402z M174.854,313.175l-3.627-21.652h23.487l1.964,21.652H174.854z M171.993,388.168
	h-16.271l-5.13-22.923h17.562L171.993,388.168z M168.681,276.315l-3.84-22.923h26.415l2.079,22.923H168.681z M165.607,350.037
	h-18.419l-4.846-21.653h19.638L165.607,350.037z M138.94,313.175l-4.845-21.652h21.714l3.627,21.652H138.94z M140.139,388.168
	h-21.402l-5.415-22.923h21.686L140.139,388.168z M130.691,276.315l-5.13-22.923h23.861l3.838,22.923H130.691z M126.759,328.383
	l4.846,21.653H109.73l-5.115-21.653H126.759z M101.022,313.175l-5.115-21.652h22.602l4.845,21.652H101.022z M92.315,276.315
	L86.9,253.391h23.075l5.13,22.923H92.315z M215.292,350.037l-1.964-21.653H233.7v21.653H215.292z M233.7,365.245v22.923h-14.949
	l-2.079-22.923H233.7z M211.949,313.175l-1.964-21.652H233.7v21.652H211.949z M208.606,276.315l-2.079-22.923H233.7v22.923H208.606z
	 M248.908,388.168V253.39h14.183v134.778H248.908z M302.264,291.523l-1.964,21.652h-22.001v-21.652H302.264z M278.3,276.315v-22.923
	h27.423l-2.079,22.923H278.3z M298.921,328.383l-1.964,21.653H278.3v-21.653H298.921z M295.577,365.245l-2.079,22.923h-15.199
	v-22.923H295.577z M416.473,291.523l-5.115,21.652h-22.464l4.845-21.652H416.473z M397.143,276.315l5.13-22.923h23.207
	l-5.415,22.923H397.143z M407.766,328.383l-5.115,21.653h-22.007l4.846-21.653H407.766z M399.059,365.245l-5.415,22.923h-21.532
	l5.13-22.923H399.059z M381.559,276.315h-22.571l3.839-22.923h23.861L381.559,276.315z M378.155,291.523l-4.845,21.652h-20.494
	l3.627-21.652H378.155z M369.906,328.383l-4.846,21.653h-18.419l3.627-21.653H369.906z M361.658,365.245l-5.13,22.923h-16.271
	l3.839-22.923H361.658z M343.568,276.315h-24.655l2.079-22.923h26.415L343.568,276.315z M341.021,291.523l-3.627,21.652h-21.825
	l1.964-21.652H341.021z M334.848,328.383l-3.627,21.653h-18.996l1.964-21.653H334.848z M328.675,365.245l-3.84,22.923h-16.068
	l2.079-22.923H328.675z M484.511,238.182h-8.683h-46.756H278.3h-44.599H83.308H36.172h-8.683c-6.772,0-12.281-5.509-12.281-12.281
	s5.509-12.281,12.281-12.281h60.209c0.013,0,0.026,0.001,0.039,0.001h271.976c0.013,0,0.026-0.001,0.04-0.001h72.631h52.128
	c6.772,0,12.281,5.509,12.281,12.281S491.283,238.182,484.511,238.182z"/>
<rect x="299.079" y="232.419" style="fill:#FC4F5C;" width="180.518" height="5.759"/>
<g>
	<polygon style="fill:#A81124;" points="102.765,419.386 94.603,419.386 55.387,253.386 71.274,253.386 74.61,267.531 
		65.901,267.531 	"/>
	<polygon style="fill:#A81124;" points="263.087,253.386 263.087,267.237 256,267.237 256,388.17 248.913,388.17 248.913,253.386 	
		"/>
	<polygon style="fill:#A81124;" points="456.613,253.386 453.267,267.54 437.765,267.54 441.111,253.386 	"/>
</g>
<polygon style="fill:#FC4F5C;" points="444.198,267.54 409.843,409.825 108.351,409.825 106.704,403.376 405.677,403.376 
	437.765,267.54 "/>
<path style="fill:#99A0A4;" d="M372.28,149.963v8.111H160.403c-15.309,0-27.77,12.46-27.77,27.78c0,4.512,1.095,8.78,3.021,12.562
	h-19.263v-23.288c0-13.9,11.264-25.164,25.164-25.164L372.28,149.963L372.28,149.963z"/>
<g>
</g>
<g>
</g>
<g>
</g>
<g>
</g>
<g>
</g>
<g>
</g>
<g>
</g>
<g>
</g>
<g>
</g>
<g>
</g>
<g>
</g>
<g>
</g>
<g>
</g>
<g>
</g>
<g>
</g>
</svg>
